<svg width="98" height="31" viewBox="0 0 98 31" fill="none" xmlns="http://www.w3.org/2000/svg">
<path d="M10.1484 27.4603C10.1484 28.6674 11.1472 29.6633 12.3575 29.4775C15.3463 29.0187 18.1325 27.6369 20.2981 25.5027C22.9899 22.8498 24.5022 19.2517 24.5022 15.4999C24.5022 11.7482 22.9899 8.1501 20.2981 5.4972C18.1325 3.363 15.3463 1.98116 12.3575 1.5224C11.1472 1.33663 10.1484 2.33248 10.1484 3.53958L10.1484 27.4603Z" fill="url(#paint0_radial_605_5)"/>
<path fill-rule="evenodd" clip-rule="evenodd" d="M2.2273 1.5C0.997198 1.5 0 2.48108 0 3.6913V21.9483C0 26.119 3.4365 29.4999 7.67563 29.4999C8.35692 29.4999 8.90921 28.9565 8.90921 28.2863V3.6913C8.90921 2.48108 7.91201 1.5 6.68191 1.5H2.2273ZM2.30087 3.60124L2.90625 3.61821C2.92771 3.61821 2.94912 3.63103 2.96203 3.65666C2.97478 3.67796 2.97059 3.69927 2.95767 3.72057L1.35224 5.9787C1.33933 5.99584 1.32222 6.00433 1.30076 6.00433C1.29204 6.00433 1.28349 6.00433 1.27494 6C1.24911 5.98719 1.23201 5.9574 1.24056 5.92761L1.62255 4.36813H1.05594C1.03448 4.36813 1.01737 4.35948 1.00446 4.3425C0.99155 4.32536 0.98719 4.30406 0.99155 4.28708L1.38227 2.64674C1.39082 2.61695 1.41664 2.59565 1.44666 2.59565H2.57572C2.59718 2.59565 2.61429 2.6043 2.6272 2.62128C2.64011 2.63825 2.6443 2.65956 2.63575 2.68086L2.30087 3.60124Z" fill="black"/>
<path d="M34.204 24V7.2H39.652C41.62 7.2 43.236 7.544 44.5 8.232C45.78 8.92 46.724 9.896 47.332 11.16C47.956 12.408 48.268 13.896 48.268 15.624C48.268 17.336 47.956 18.824 47.332 20.088C46.724 21.336 45.78 22.304 44.5 22.992C43.236 23.664 41.62 24 39.652 24H34.204ZM36.748 21.84H39.556C41.076 21.84 42.276 21.592 43.156 21.096C44.052 20.6 44.692 19.888 45.076 18.96C45.476 18.032 45.676 16.92 45.676 15.624C45.676 14.328 45.476 13.208 45.076 12.264C44.692 11.32 44.052 10.6 43.156 10.104C42.276 9.592 41.076 9.336 39.556 9.336H36.748V21.84ZM53.095 24.288C52.087 24.288 51.255 24.12 50.599 23.784C49.943 23.448 49.455 23.008 49.135 22.464C48.815 21.904 48.655 21.296 48.655 20.64C48.655 19.488 49.103 18.576 49.999 17.904C50.895 17.232 52.175 16.896 53.839 16.896H56.959V16.68C56.959 15.752 56.703 15.056 56.191 14.592C55.695 14.128 55.047 13.896 54.247 13.896C53.543 13.896 52.927 14.072 52.399 14.424C51.887 14.76 51.575 15.264 51.463 15.936H48.919C48.999 15.072 49.287 14.336 49.783 13.728C50.295 13.104 50.935 12.632 51.703 12.312C52.487 11.976 53.343 11.808 54.271 11.808C55.935 11.808 57.223 12.248 58.135 13.128C59.047 13.992 59.503 15.176 59.503 16.68V24H57.295L57.079 21.96C56.743 22.616 56.255 23.168 55.615 23.616C54.975 24.064 54.135 24.288 53.095 24.288ZM53.599 22.224C54.287 22.224 54.863 22.064 55.327 21.744C55.807 21.408 56.175 20.968 56.431 20.424C56.703 19.88 56.871 19.28 56.935 18.624H54.103C53.095 18.624 52.375 18.8 51.943 19.152C51.527 19.504 51.319 19.944 51.319 20.472C51.319 21.016 51.519 21.448 51.919 21.768C52.335 22.072 52.895 22.224 53.599 22.224ZM65.3013 24.288C63.7973 24.288 62.5572 23.92 61.5813 23.184C60.6052 22.448 60.0452 21.472 59.9012 20.256H62.4692C62.5972 20.8 62.9012 21.272 63.3812 21.672C63.8612 22.056 64.4932 22.248 65.2772 22.248C66.0452 22.248 66.6053 22.088 66.9573 21.768C67.3093 21.448 67.4852 21.08 67.4852 20.664C67.4852 20.056 67.2373 19.648 66.7413 19.44C66.2613 19.216 65.5893 19.016 64.7253 18.84C64.0533 18.696 63.3813 18.504 62.7092 18.264C62.0532 18.024 61.5012 17.688 61.0533 17.256C60.6212 16.808 60.4052 16.208 60.4052 15.456C60.4052 14.416 60.8052 13.552 61.6053 12.864C62.4053 12.16 63.5253 11.808 64.9653 11.808C66.2933 11.808 67.3653 12.128 68.1813 12.768C69.0133 13.408 69.5013 14.312 69.6453 15.48H67.1973C67.1173 14.968 66.8773 14.568 66.4773 14.28C66.0933 13.992 65.5733 13.848 64.9173 13.848C64.2773 13.848 63.7812 13.984 63.4293 14.256C63.0773 14.512 62.9013 14.848 62.9013 15.264C62.9013 15.68 63.1413 16.008 63.6213 16.248C64.1173 16.488 64.7653 16.704 65.5653 16.896C66.3653 17.072 67.1013 17.28 67.7733 17.52C68.4613 17.744 69.0133 18.08 69.4293 18.528C69.8453 18.976 70.0533 19.632 70.0533 20.496C70.0693 21.584 69.6453 22.488 68.7813 23.208C67.9333 23.928 66.7733 24.288 65.3013 24.288ZM70.9105 24V6.72H73.4545V14.016C73.8545 13.328 74.4065 12.792 75.1105 12.408C75.8305 12.008 76.6225 11.808 77.4865 11.808C78.9105 11.808 80.0305 12.256 80.8465 13.152C81.6625 14.048 82.0705 15.384 82.0705 17.16V24H79.5505V17.424C79.5505 15.12 78.6305 13.968 76.7905 13.968C75.8305 13.968 75.0305 14.304 74.3905 14.976C73.7665 15.648 73.4545 16.608 73.4545 17.856V24H70.9105ZM82.4027 24L87.5867 15.504L82.3547 7.2H85.2587L89.2188 13.488L92.9148 7.2H95.7708L90.5628 15.624L95.8428 24H92.9388L88.9548 17.664L85.2587 24H82.4027Z" fill="#1B1B1B"/>
<defs>
<radialGradient id="paint0_radial_605_5" cx="0" cy="0" r="1" gradientUnits="userSpaceOnUse" gradientTransform="translate(18.9958 2.71739) rotate(105.872) scale(28.73 14.6927)">
<stop stop-color="#0B4AE1"/>
<stop offset="0.217453" stop-color="#0B4AE1"/>
<stop offset="0.428671" stop-color="#0B4AE1"/>
<stop offset="0.52" stop-color="#1B59EE"/>
<stop offset="0.6" stop-color="#346EF8"/>
<stop offset="0.722363" stop-color="#6D97FB"/>
<stop offset="0.722463" stop-color="#7099FB"/>
<stop offset="1" stop-color="white"/>
</radialGradient>
</defs>
</svg>
