<svg width="144" height="144" viewBox="0 0 144 144" fill="none" xmlns="http://www.w3.org/2000/svg">
<g filter="url(#filter0_d_605_44)">
<g clip-path="url(#clip0_605_44)">
<rect x="6" y="37.3398" width="82" height="82" rx="16" transform="rotate(-18 6 37.3398)" fill="white"/>
<path d="M59.6263 60.4331L54.8209 61.9944C52.2467 62.8308 49.4175 61.423 48.5661 58.8026C47.7146 56.1822 49.1331 53.3942 51.7502 52.5438L56.5556 50.9824C59.1299 50.146 61.959 51.5539 62.8105 54.1743L67.1009 52.7802C65.4818 47.7972 60.1368 45.0696 55.1598 46.6867L54.9024 46.7703L53.4368 42.2598L49.1463 43.6539L50.6259 48.2073L50.3684 48.291C45.3915 49.9081 42.6704 55.2565 44.2895 60.2396C45.9086 65.2226 51.2537 67.9502 56.2307 66.3331L61.036 64.7717C63.6103 63.9353 66.4395 65.3432 67.2909 67.9636C68.1283 70.541 66.7239 73.372 64.1067 74.2224L59.3014 75.7837C56.7271 76.6202 53.8979 75.2123 53.0465 72.5919L48.756 73.9859C50.3751 78.969 55.7202 81.6966 60.6971 80.0795L60.9546 79.9958L62.4341 84.5493L66.7246 83.1552L65.2171 78.5158L65.4746 78.4322C70.4515 76.8151 73.1725 71.4667 71.5534 66.4836C69.9344 61.5006 64.6032 58.8159 59.6263 60.4331Z" fill="#2F2E31"/>
</g>
</g>
<defs>
<filter id="filter0_d_605_44" x="-4" y="-3.99951" width="151.324" height="151.326" filterUnits="userSpaceOnUse" color-interpolation-filters="sRGB">
<feFlood flood-opacity="0" result="BackgroundImageFix"/>
<feColorMatrix in="SourceAlpha" type="matrix" values="0 0 0 0 0 0 0 0 0 0 0 0 0 0 0 0 0 0 127 0" result="hardAlpha"/>
<feOffset dx="14" dy="8"/>
<feGaussianBlur stdDeviation="12"/>
<feComposite in2="hardAlpha" operator="out"/>
<feColorMatrix type="matrix" values="0 0 0 0 0.533333 0 0 0 0 0.533333 0 0 0 0 0.533333 0 0 0 0.25 0"/>
<feBlend mode="normal" in2="BackgroundImageFix" result="effect1_dropShadow_605_44"/>
<feBlend mode="normal" in="SourceGraphic" in2="effect1_dropShadow_605_44" result="shape"/>
</filter>
<clipPath id="clip0_605_44">
<rect x="6" y="37.3398" width="82" height="82" rx="16" transform="rotate(-18 6 37.3398)" fill="white"/>
</clipPath>
</defs>
</svg>
