<svg width="150" height="150" viewBox="0 0 150 150" fill="none" xmlns="http://www.w3.org/2000/svg">
<g filter="url(#filter0_d_605_68)">
<g clip-path="url(#clip0_605_68)">
<rect x="46" y="11" width="82" height="82" rx="16" transform="rotate(30 46 11)" fill="white"/>
<rect x="52.2227" y="34.2227" width="48" height="48" rx="24" transform="rotate(30 52.2227 34.2227)" fill="#E4E4E4"/>
<path d="M66.7232 56.4505L66.2934 56.8599L58.0299 71.1726L58.0914 71.4013L67.0025 71.3099L66.7232 56.4505Z" fill="#343434"/>
<path d="M66.7219 56.4505L53.7136 63.6384L58.09 71.4014L62.1009 64.4544L66.7219 56.4505Z" fill="#8C8C8C"/>
<path d="M57.3625 72.6594L57.2231 72.7118L54.2795 77.8103L54.2234 78.0964L66.2764 72.5723L57.3625 72.6594Z" fill="#3C3C3B"/>
<path d="M54.2229 78.0964L57.362 72.6594L52.9844 64.8984L54.2229 78.0964Z" fill="#8C8C8C"/>
<path d="M58.0908 71.4014L67.0018 71.3101L62.1016 64.4546L58.0908 71.4014Z" fill="#141414"/>
<path d="M53.7136 63.6384L58.09 71.4012L62.1007 64.4544L53.7136 63.6384Z" fill="#393939"/>
</g>
</g>
<defs>
<filter id="filter0_d_605_68" x="-5" y="-5" width="160.016" height="160.014" filterUnits="userSpaceOnUse" color-interpolation-filters="sRGB">
<feFlood flood-opacity="0" result="BackgroundImageFix"/>
<feColorMatrix in="SourceAlpha" type="matrix" values="0 0 0 0 0 0 0 0 0 0 0 0 0 0 0 0 0 0 127 0" result="hardAlpha"/>
<feOffset dx="14" dy="8"/>
<feGaussianBlur stdDeviation="12"/>
<feComposite in2="hardAlpha" operator="out"/>
<feColorMatrix type="matrix" values="0 0 0 0 0.533333 0 0 0 0 0.533333 0 0 0 0 0.533333 0 0 0 0.25 0"/>
<feBlend mode="normal" in2="BackgroundImageFix" result="effect1_dropShadow_605_68"/>
<feBlend mode="normal" in="SourceGraphic" in2="effect1_dropShadow_605_68" result="shape"/>
</filter>
<clipPath id="clip0_605_68">
<rect x="46" y="11" width="82" height="82" rx="16" transform="rotate(30 46 11)" fill="white"/>
</clipPath>
</defs>
</svg>
