<svg width="144" height="144" viewBox="0 0 144 144" fill="none" xmlns="http://www.w3.org/2000/svg">
<g filter="url(#filter0_d_605_47)">
<g clip-path="url(#clip0_605_47)">
<rect x="31.3398" y="12" width="82" height="82" rx="16" transform="rotate(18 31.3398 12)" fill="white"/>
<g clip-path="url(#clip1_605_47)">
<path d="M68.3391 62.2234L67.6946 64.2069L67.6868 64.2309C67.5793 64.5618 67.2239 64.7429 66.893 64.6353C66.885 64.6327 66.8758 64.6298 66.8678 64.6272L63.6004 63.5655C62.7413 65.3165 61.3109 66.6044 59.6248 67.2968L59.6115 67.3026C57.7556 68.0131 55.6584 68.1922 53.5839 67.7074L53.5466 67.6978C54.9619 70.7098 56.8091 75.1524 59.0881 81.0257C59.1547 81.1546 59.1718 81.3078 59.1236 81.4561C59.0895 81.5611 59.0283 81.6485 58.9491 81.7136L58.951 81.7117C58.7967 81.8912 58.5491 81.9698 58.3129 81.893C58.2981 81.8882 58.2844 81.8837 58.271 81.8782L58.2733 81.8789L54.4798 80.6463C54.4729 80.6441 54.4638 80.6411 54.4558 80.6385C54.2663 80.5769 54.1282 80.4311 54.0704 80.2559L54.0696 80.2544C51.6476 74.205 49.6212 69.4531 47.9906 65.9985C47.9166 65.8571 47.8971 65.688 47.9502 65.5248C47.9516 65.5203 47.9528 65.5168 47.9542 65.5123L47.9539 65.5134L48.7574 63.0403C48.8732 62.6994 49.2392 62.5129 49.5819 62.6193L51.7606 63.3272C51.8717 63.3696 52.0022 63.4145 52.1346 63.4575C53.4996 63.901 54.8927 64.0092 56.226 63.8279L56.1661 63.8337C57.3006 63.6623 58.3071 63.0304 58.9355 62.075L58.9497 62.0506L50.6413 59.3511C50.6344 59.3488 50.6253 59.3459 50.6173 59.3433C50.2863 59.2357 50.1053 58.8804 50.2128 58.5494C50.2154 58.5414 50.2184 58.5323 50.221 58.5243L50.8651 56.5419C50.8673 56.5351 50.8703 56.526 50.8729 56.518C50.9804 56.187 51.3358 56.006 51.6667 56.1135L51.6918 56.1216L59.7252 58.7319C59.4626 57.0264 57.9629 55.7291 55.2261 54.8399L52.406 53.9236C52.0651 53.8078 51.8787 53.4418 51.985 53.0991L52.826 50.5107C52.8282 50.5039 52.8312 50.4947 52.8338 50.4867C52.9413 50.1558 53.2967 49.9747 53.6277 50.0823L53.6528 50.0904L69.8371 55.349L69.861 55.3568C70.192 55.4643 70.3731 55.8197 70.2655 56.1507L70.2574 56.1758L69.6133 58.1581L69.6055 58.1821C69.4979 58.5131 69.1426 58.6941 68.8116 58.5866C68.8036 58.584 68.7945 58.581 68.7865 58.5784L68.7877 58.5788L64.2557 57.1063C64.6005 58.0877 64.7298 59.1731 64.5977 60.2671L64.5908 60.3115L67.9165 61.3921L67.9404 61.3999C68.2714 61.5074 68.4525 61.8628 68.3449 62.1937L68.3368 62.2188L68.3391 62.2234Z" fill="#2F2E31"/>
</g>
</g>
</g>
<defs>
<filter id="filter0_d_605_47" x="-4" y="-4" width="151.328" height="151.326" filterUnits="userSpaceOnUse" color-interpolation-filters="sRGB">
<feFlood flood-opacity="0" result="BackgroundImageFix"/>
<feColorMatrix in="SourceAlpha" type="matrix" values="0 0 0 0 0 0 0 0 0 0 0 0 0 0 0 0 0 0 127 0" result="hardAlpha"/>
<feOffset dx="14" dy="8"/>
<feGaussianBlur stdDeviation="12"/>
<feComposite in2="hardAlpha" operator="out"/>
<feColorMatrix type="matrix" values="0 0 0 0 0.533333 0 0 0 0 0.533333 0 0 0 0 0.533333 0 0 0 0.25 0"/>
<feBlend mode="normal" in2="BackgroundImageFix" result="effect1_dropShadow_605_47"/>
<feBlend mode="normal" in="SourceGraphic" in2="effect1_dropShadow_605_47" result="shape"/>
</filter>
<clipPath id="clip0_605_47">
<rect x="31.3398" y="12" width="82" height="82" rx="16" transform="rotate(18 31.3398 12)" fill="white"/>
</clipPath>
<clipPath id="clip1_605_47">
<rect width="18" height="36" fill="white" transform="translate(53.0312 49.8936) rotate(18)"/>
</clipPath>
</defs>
</svg>
