<svg width="150" height="94" viewBox="0 0 150 94" fill="none" xmlns="http://www.w3.org/2000/svg">
<g filter="url(#filter0_d_605_25)">
<g clip-path="url(#clip0_605_25)">
<rect x="45.5703" y="11" width="82" height="82" rx="16" transform="rotate(29.6523 45.5703 11)" fill="white"/>
<g clip-path="url(#clip1_605_25)">
<path d="M49.1683 88.2313C60.7266 94.8113 75.319 90.8063 81.899 79.2479C88.479 67.6896 84.474 53.0972 72.9156 46.5172C61.3573 39.9372 46.765 43.9422 40.1849 55.5006C33.6049 67.0589 37.61 81.6513 49.1683 88.2313Z" fill="#2775CA"/>
<path d="M64.896 73.9419C66.6275 70.9003 65.3962 68.8185 61.9936 66.3061C59.5844 64.4743 59.4587 63.4822 60.1514 62.2654C60.8441 61.0486 62.1584 60.7615 63.8964 61.7509C65.4607 62.6414 66.0329 63.6577 65.7253 65.2085C65.6638 65.5188 65.8256 65.8409 66.0863 65.9894L67.4767 66.7808C67.8244 66.9788 68.2335 66.8665 68.4313 66.519L68.4808 66.432C69.2216 64.3221 68.4983 61.9543 66.5985 60.6427L67.7859 58.557C67.9838 58.2093 67.8715 57.8002 67.4866 57.4659L66.183 56.7238C65.8353 56.5259 65.4262 56.6381 65.0918 57.0233L63.9539 59.022C61.1489 57.8855 58.5084 58.6836 57.2715 60.8563C55.6389 63.7241 56.7338 65.8432 60.1363 68.3557C62.3224 70.1755 62.8077 71.1422 62.0161 72.5327C61.2245 73.9232 59.4635 74.1864 57.8125 73.2465C55.5528 71.9601 55.315 70.5588 55.7963 69.1068C55.9074 68.7099 55.7457 68.3875 55.485 68.2391L54.0075 67.398C53.66 67.2002 53.2509 67.3124 53.0529 67.6601L53.0034 67.7471C52.1141 70.1174 52.6141 72.4733 55.2345 74.5406L54.0472 76.6263C53.8494 76.9738 53.9617 77.3829 54.3466 77.7172L55.6502 78.4593C55.9978 78.6572 56.407 78.5449 56.7413 78.16L57.9286 76.0743C60.7832 77.1238 63.5602 76.2883 64.896 73.9419Z" fill="white"/>
<path d="M49.5336 77.2786C44.1402 70.9864 44.9682 61.4468 51.2981 56.1898C54.6795 53.2819 59.1305 52.1337 63.4356 52.8585C63.8822 52.8827 64.2044 52.7209 64.4518 52.2862L65.1444 51.0696C65.3423 50.722 65.317 50.3623 65.0187 50.0776C64.9317 50.0281 64.758 49.9292 64.6216 49.9665C54.8816 47.8736 45.3656 54.0785 43.2728 63.8185C42.0665 69.5756 43.6761 75.44 47.6521 79.7747C47.9009 80.1464 48.3475 80.1706 48.6322 79.8723C48.7686 79.835 48.8181 79.7481 48.917 79.5743L49.6097 78.3575C49.7581 78.0968 49.6952 77.6009 49.5336 77.2786ZM74.1813 55.4086C73.9325 55.037 73.4859 55.0128 73.2012 55.3111C73.0647 55.3485 73.0153 55.4353 72.9163 55.6092L72.2237 56.8258C72.0257 57.1735 72.0886 57.6694 72.2503 57.9918C77.6437 64.2839 76.8157 73.8236 70.4858 79.0805C67.1044 81.9884 62.6534 83.1367 58.3483 82.4118C57.9017 82.3876 57.5795 82.5494 57.3321 82.9841L56.6395 84.2007C56.4416 84.5484 56.4669 84.908 56.7652 85.1927C56.8521 85.2422 57.0259 85.3411 57.1623 85.3039C66.9023 87.3967 76.4183 81.1919 78.5111 71.4518C79.7669 65.6078 78.0703 59.6939 74.1813 55.4086Z" fill="white"/>
</g>
</g>
</g>
<defs>
<filter id="filter0_d_605_25" x="-4.99609" y="-5" width="159.828" height="159.83" filterUnits="userSpaceOnUse" color-interpolation-filters="sRGB">
<feFlood flood-opacity="0" result="BackgroundImageFix"/>
<feColorMatrix in="SourceAlpha" type="matrix" values="0 0 0 0 0 0 0 0 0 0 0 0 0 0 0 0 0 0 127 0" result="hardAlpha"/>
<feOffset dx="14" dy="8"/>
<feGaussianBlur stdDeviation="12"/>
<feComposite in2="hardAlpha" operator="out"/>
<feColorMatrix type="matrix" values="0 0 0 0 0.533333 0 0 0 0 0.533333 0 0 0 0 0.533333 0 0 0 0.25 0"/>
<feBlend mode="normal" in2="BackgroundImageFix" result="effect1_dropShadow_605_25"/>
<feBlend mode="normal" in="SourceGraphic" in2="effect1_dropShadow_605_25" result="shape"/>
</filter>
<clipPath id="clip0_605_25">
<rect x="45.5703" y="11" width="82" height="82" rx="16" transform="rotate(29.6523 45.5703 11)" fill="white"/>
</clipPath>
<clipPath id="clip1_605_25">
<rect width="48" height="48" fill="white" transform="translate(52.0586 34.6436) rotate(29.6523)"/>
</clipPath>
</defs>
</svg>
