<svg width="150" height="150" viewBox="0 0 150 150" fill="none" xmlns="http://www.w3.org/2000/svg">
<g filter="url(#filter0_d_605_30)">
<g clip-path="url(#clip0_605_30)">
<rect x="46" y="11" width="82" height="82" rx="16" transform="rotate(30 46 11)" fill="white"/>
<rect x="52.2227" y="34.2227" width="48" height="48" rx="24" transform="rotate(30 52.2227 34.2227)" fill="#50AF95"/>
<path fill-rule="evenodd" clip-rule="evenodd" d="M63.1007 69.8765C62.9621 69.8098 62.2519 69.4546 60.7206 68.5706C59.5027 67.8674 58.6592 67.3315 58.3642 67.1418C53.7777 64.2163 50.7401 61.3644 51.3094 60.3783C51.8787 59.3923 55.8667 60.5981 60.6954 63.104L58.8378 66.3216C59.1327 66.5215 59.9838 67.0827 61.2017 67.7858C62.6632 68.6296 63.4304 68.991 63.5692 69.0548L65.4263 65.8383C70.0015 68.7603 73.0314 71.6077 72.4633 72.5916C71.8953 73.5754 67.9155 72.3759 63.0969 69.8728L63.1007 69.8765ZM65.6228 65.5081L67.2852 62.6288L73.8397 66.4131L76.3747 62.0224L58.529 51.7192L55.9941 56.1099L62.5475 59.8935L60.8858 62.7717C55.4171 59.9423 50.799 58.6902 50.0651 59.9612C49.3313 61.2322 52.7254 64.6045 57.9094 67.927L52.5825 77.1535L57.319 79.8881L62.6479 70.6583C68.1044 73.4806 72.7153 74.73 73.4485 73.4601C74.1817 72.1902 70.7975 68.8236 65.6224 65.5063L65.6228 65.5081Z" fill="white"/>
</g>
</g>
<defs>
<filter id="filter0_d_605_30" x="-5" y="-5" width="160.016" height="160.014" filterUnits="userSpaceOnUse" color-interpolation-filters="sRGB">
<feFlood flood-opacity="0" result="BackgroundImageFix"/>
<feColorMatrix in="SourceAlpha" type="matrix" values="0 0 0 0 0 0 0 0 0 0 0 0 0 0 0 0 0 0 127 0" result="hardAlpha"/>
<feOffset dx="14" dy="8"/>
<feGaussianBlur stdDeviation="12"/>
<feComposite in2="hardAlpha" operator="out"/>
<feColorMatrix type="matrix" values="0 0 0 0 0.533333 0 0 0 0 0.533333 0 0 0 0 0.533333 0 0 0 0.25 0"/>
<feBlend mode="normal" in2="BackgroundImageFix" result="effect1_dropShadow_605_30"/>
<feBlend mode="normal" in="SourceGraphic" in2="effect1_dropShadow_605_30" result="shape"/>
</filter>
<clipPath id="clip0_605_30">
<rect x="46" y="11" width="82" height="82" rx="16" transform="rotate(30 46 11)" fill="white"/>
</clipPath>
</defs>
</svg>
